# This file uses centimeters as units for non-parametric coordinates.

mtllib WarpPipe.mtl
v -1.450896 3.350700 -0.837675
v -0.837675 3.350700 -1.450896
v 0.000000 3.350700 -1.675350
v 0.837675 3.350700 -1.450896
v 1.450896 3.350700 -0.837675
v 1.675350 3.350700 0.000000
v 1.450896 3.350700 0.837675
v 0.837675 3.350700 1.450896
v 0.000000 3.350700 1.675350
v -0.837675 3.350700 1.450896
v -1.450896 3.350700 0.837675
v -1.675350 3.350700 0.000000
v -1.450896 0.830626 -0.837675
v -0.837675 0.830626 -1.450896
v 0.000000 0.830626 -1.675350
v 0.837675 0.830626 -1.450896
v 1.450896 0.830626 -0.837675
v 1.675350 0.830626 0.000000
v 1.450896 0.830626 0.837675
v 0.837675 0.830626 1.450896
v 0.000000 0.830626 1.675350
v -0.837675 0.830626 1.450896
v -1.450896 0.830626 0.837675
v -1.675350 0.830626 0.000000
v -1.450896 0.000000 -0.837675
v -0.837675 0.000000 -1.450896
v 0.000000 0.000000 -1.675350
v 0.837675 0.000000 -1.450896
v 1.450896 0.000000 -0.837675
v 1.675350 0.000000 0.000000
v 1.450896 0.000000 0.837675
v 0.837675 0.000000 1.450896
v 0.000000 0.000000 1.675350
v -0.837675 0.000000 1.450896
v -1.450896 0.000000 0.837675
v -1.675350 0.000000 0.000000
v 0.000000 3.350700 0.000000
v -1.727103 0.830626 -0.997143
v -0.997143 0.830626 -1.727103
v -0.997143 0.000000 -1.727103
v -1.727103 0.000000 -0.997143
v 0.000000 0.830626 -1.994286
v 0.000000 0.000000 -1.994286
v 0.997143 0.830626 -1.727102
v 0.997143 0.000000 -1.727102
v 1.727103 0.830626 -0.997143
v 1.727103 0.000000 -0.997143
v 1.994286 0.830626 0.000000
v 1.994286 0.000000 0.000000
v 1.727102 0.830626 0.997143
v 1.727102 0.000000 0.997143
v 0.997143 0.830626 1.727103
v 0.997143 0.000000 1.727103
v 0.000000 0.830626 1.994286
v 0.000000 0.000000 1.994286
v -0.997143 0.830626 1.727102
v -0.997143 0.000000 1.727102
v -1.727103 0.830626 0.997143
v -1.727103 0.000000 0.997143
v -1.994286 0.830626 0.000000
v -1.994286 0.000000 0.000000
v -1.450896 0.513713 -0.837675
v -0.837675 0.513713 -1.450896
v 0.000000 0.513713 -0.000000
v 0.000000 0.513713 -1.675350
v 0.837675 0.513713 -1.450896
v 1.450896 0.513713 -0.837675
v 1.675350 0.513713 -0.000000
v 1.450896 0.513713 0.837675
v 0.837675 0.513713 1.450896
v 0.000000 0.513713 1.675350
v -0.837675 0.513713 1.450896
v -1.450896 0.513713 0.837675
v -1.675350 0.513713 -0.000000
vt 0.010094 0.627392
vt 0.010094 0.552095
vt 0.236620 0.552095
vt 0.236620 0.627392
vt 0.010094 0.476797
vt 0.236620 0.476797
vt 0.010094 0.682514
vt 0.236620 0.682514
vt 0.010094 0.421676
vt 0.236620 0.421676
vt 0.010094 0.215960
vt 0.010094 0.140662
vt 0.236620 0.140662
vt 0.236620 0.215960
vt 0.010094 0.065365
vt 0.236620 0.065365
vt 0.010094 0.271081
vt 0.236620 0.271081
vt 0.010094 0.010243
vt 0.236620 0.010243
vt 0.856748 0.744878
vt 0.856748 0.655247
vt 0.931412 0.655247
vt 0.931412 0.744878
vt 0.856748 0.565615
vt 0.931412 0.565615
vt 0.856748 0.810493
vt 0.931412 0.810493
vt 0.856748 0.500000
vt 0.931412 0.500000
vt 0.856748 0.255122
vt 0.856748 0.165490
vt 0.931412 0.165490
vt 0.931412 0.255122
vt 0.856748 0.075858
vt 0.931412 0.075858
vt 0.856748 0.320737
vt 0.931412 0.320737
vt 0.856748 0.010243
vt 0.931412 0.010243
vt 0.989094 0.215960
vt 0.989094 0.291258
vt 0.942918 0.291258
vt 0.942918 0.215960
vt 0.989094 0.366555
vt 0.942918 0.366555
vt 0.989094 0.160839
vt 0.942918 0.160838
vt 0.989094 0.421676
vt 0.942918 0.421677
vt 0.989109 0.627391
vt 0.989117 0.702688
vt 0.942940 0.702692
vt 0.942933 0.627395
vt 0.989123 0.777985
vt 0.942946 0.777990
vt 0.989104 0.572269
vt 0.942927 0.572273
vt 0.989129 0.833107
vt 0.942952 0.833111
vt 0.470870 0.551408
vt 0.525992 0.606529
vt 0.395573 0.681827
vt 0.546167 0.681827
vt 0.395573 0.531232
vt 0.525992 0.757124
vt 0.320275 0.551408
vt 0.470870 0.812245
vt 0.265154 0.606529
vt 0.395573 0.832421
vt 0.244978 0.681827
vt 0.320275 0.812245
vt 0.265154 0.757124
vt 0.828521 0.867593
vt 0.773399 0.922715
vt 0.698102 0.792296
vt 0.698102 0.942890
vt 0.848696 0.792296
vt 0.622804 0.922715
vt 0.828521 0.716998
vt 0.567683 0.867593
vt 0.773399 0.661877
vt 0.547507 0.792296
vt 0.698102 0.641701
vt 0.567683 0.716998
vt 0.622804 0.661877
vt 0.798427 0.385848
vt 0.743306 0.330726
vt 0.757640 0.305898
vt 0.823255 0.371513
vt 0.668008 0.310550
vt 0.668008 0.281882
vt 0.818603 0.461145
vt 0.847272 0.461145
vt 0.592711 0.330726
vt 0.578377 0.305898
vt 0.798427 0.536442
vt 0.823255 0.550777
vt 0.537590 0.385848
vt 0.512762 0.371513
vt 0.743306 0.591564
vt 0.757640 0.616392
vt 0.517414 0.461145
vt 0.488745 0.461145
vt 0.668008 0.611740
vt 0.668008 0.640408
vt 0.537590 0.536442
vt 0.512762 0.550777
vt 0.592711 0.591564
vt 0.578377 0.616392
vt 0.499539 0.319926
vt 0.554660 0.264804
vt 0.579488 0.279138
vt 0.513873 0.344753
vt 0.574836 0.189507
vt 0.603505 0.189507
vt 0.424241 0.340101
vt 0.424241 0.368770
vt 0.554660 0.114209
vt 0.579488 0.099875
vt 0.348944 0.319926
vt 0.334610 0.344753
vt 0.499539 0.059088
vt 0.513873 0.034260
vt 0.293823 0.264804
vt 0.268995 0.279138
vt 0.424241 0.038912
vt 0.424241 0.010243
vt 0.273647 0.189507
vt 0.244978 0.189507
vt 0.348944 0.059088
vt 0.334610 0.034260
vt 0.293823 0.114209
vt 0.268995 0.099875
vt 0.010094 0.833108
vt 0.010094 0.757811
vt 0.236620 0.757811
vt 0.236620 0.833108
vt 0.010094 0.346378
vt 0.236620 0.346378
vt 0.856748 0.989757
vt 0.856748 0.900125
vt 0.931412 0.900125
vt 0.931412 0.989757
vt 0.856748 0.410368
vt 0.931412 0.410368
vt 0.989098 0.010244
vt 0.989097 0.085542
vt 0.942920 0.085541
vt 0.942922 0.010243
vt 0.989100 0.496972
vt 0.942922 0.496975
vn -0.866025 0.000000 -0.500000
vn -0.500000 0.000000 -0.866025
vn -0.500000 0.000000 -0.866025
vn -0.866025 0.000000 -0.500000
vn 0.000000 0.000000 -1.000000
vn 0.000000 0.000000 -1.000000
vn 0.500000 0.000000 -0.866025
vn 0.500000 0.000000 -0.866025
vn 0.866025 0.000000 -0.500000
vn 0.866025 0.000000 -0.500000
vn 1.000000 0.000000 0.000000
vn 1.000000 0.000000 0.000000
vn 0.866025 0.000000 0.500000
vn 0.866025 0.000000 0.500000
vn 0.500000 0.000000 0.866025
vn 0.500000 0.000000 0.866025
vn 0.000000 0.000000 1.000000
vn 0.000000 0.000000 1.000000
vn -0.500000 0.000000 0.866025
vn -0.500000 0.000000 0.866025
vn -0.866025 0.000000 0.500000
vn -0.866025 0.000000 0.500000
vn -1.000000 0.000000 0.000000
vn -1.000000 0.000000 0.000000
vn -0.866025 0.000000 -0.500000
vn -0.500000 0.000000 -0.866025
vn -0.500000 0.000000 -0.866025
vn -0.866025 0.000000 -0.500000
vn 0.000000 0.000000 -1.000000
vn 0.000000 0.000000 -1.000000
vn 0.500000 0.000000 -0.866025
vn 0.500000 0.000000 -0.866025
vn 0.866025 0.000000 -0.500000
vn 0.866025 0.000000 -0.500000
vn 1.000000 0.000000 0.000000
vn 1.000000 0.000000 0.000000
vn 0.866025 0.000000 0.500000
vn 0.866025 0.000000 0.500000
vn 0.500000 0.000000 0.866025
vn 0.500000 0.000000 0.866025
vn -0.000000 0.000000 1.000000
vn -0.000000 0.000000 1.000000
vn -0.500000 0.000000 0.866025
vn -0.500000 0.000000 0.866025
vn -0.866025 0.000000 0.500000
vn -0.866025 0.000000 0.500000
vn -1.000000 0.000000 0.000000
vn -1.000000 0.000000 0.000000
vn 0.000000 1.000000 0.000000
vn 0.000000 1.000000 0.000000
vn 0.000000 1.000000 0.000000
vn 0.000000 1.000000 0.000000
vn 0.000000 1.000000 0.000000
vn 0.000000 1.000000 0.000000
vn 0.000000 1.000000 0.000000
vn 0.000000 1.000000 0.000000
vn 0.000000 1.000000 0.000000
vn 0.000000 1.000000 0.000000
vn 0.000000 1.000000 0.000000
vn 0.000000 1.000000 0.000000
vn 0.000000 1.000000 0.000000
vn 0.000000 -1.000000 -0.000000
vn 0.000000 -1.000000 0.000000
vn 0.000000 -1.000000 0.000000
vn 0.000000 -1.000000 0.000000
vn 0.000000 -1.000000 0.000000
vn 0.000000 -1.000000 -0.000000
vn 0.000000 -1.000000 0.000000
vn 0.000000 -1.000000 0.000000
vn 0.000000 -1.000000 0.000000
vn 0.000000 -1.000000 0.000000
vn 0.000000 -1.000000 -0.000000
vn 0.000000 -1.000000 0.000000
vn 0.000000 -1.000000 0.000000
vn 0.000000 1.000000 0.000000
vn 0.000000 1.000000 -0.000000
vn 0.000000 1.000000 -0.000000
vn 0.000000 1.000000 0.000000
vn 0.000000 -1.000000 0.000000
vn 0.000000 -1.000000 0.000000
vn 0.000000 -1.000000 0.000000
vn 0.000000 -1.000000 0.000000
vn 0.000000 1.000000 -0.000000
vn 0.000000 1.000000 -0.000000
vn 0.000000 -1.000000 0.000000
vn 0.000000 -1.000000 0.000000
vn 0.000000 1.000000 0.000000
vn 0.000000 1.000000 0.000000
vn 0.000000 -1.000000 0.000000
vn 0.000000 -1.000000 0.000000
vn 0.000000 1.000000 0.000000
vn 0.000000 1.000000 0.000000
vn 0.000000 -1.000000 0.000000
vn 0.000000 -1.000000 0.000000
vn 0.000000 1.000000 -0.000000
vn 0.000000 1.000000 -0.000000
vn 0.000000 -1.000000 0.000000
vn 0.000000 -1.000000 0.000000
vn 0.000000 1.000000 0.000000
vn 0.000000 1.000000 0.000000
vn 0.000000 -1.000000 0.000000
vn 0.000000 -1.000000 0.000000
vn 0.000000 1.000000 0.000000
vn 0.000000 1.000000 0.000000
vn 0.000000 -1.000000 0.000000
vn 0.000000 -1.000000 0.000000
vn 0.000000 1.000000 0.000000
vn 0.000000 1.000000 0.000000
vn 0.000000 -1.000000 0.000000
vn 0.000000 -1.000000 0.000000
vn 0.000000 1.000000 -0.000000
vn 0.000000 1.000000 -0.000000
vn 0.000000 -1.000000 0.000000
vn 0.000000 -1.000000 0.000000
vn 0.000000 1.000000 -0.000000
vn 0.000000 1.000000 -0.000000
vn 0.000000 -1.000000 0.000000
vn 0.000000 -1.000000 0.000000
vn 0.000000 1.000000 0.000000
vn 0.000000 1.000000 0.000000
vn 0.000000 -1.000000 0.000000
vn 0.000000 -1.000000 0.000000
vn 0.866025 0.000000 0.500000
vn 0.500000 0.000000 0.866025
vn 0.500000 0.000000 0.866025
vn 0.866025 0.000000 0.500000
vn 0.000000 0.000000 1.000000
vn 0.000000 0.000000 1.000000
vn -0.500000 0.000000 0.866025
vn -0.500000 0.000000 0.866025
vn -0.866025 0.000000 0.500000
vn -0.866025 0.000000 0.500000
vn -1.000000 -0.000000 0.000000
vn -1.000000 -0.000000 0.000000
vn -0.866025 -0.000000 -0.500000
vn -0.866025 -0.000000 -0.500000
vn -0.500000 0.000000 -0.866025
vn -0.500000 0.000000 -0.866025
vn 0.000000 0.000000 -1.000000
vn 0.000000 0.000000 -1.000000
vn 0.500000 0.000000 -0.866025
vn 0.500000 0.000000 -0.866025
vn 0.866025 0.000000 -0.500000
vn 0.866025 0.000000 -0.500000
vn 1.000000 0.000000 0.000000
vn 1.000000 0.000000 0.000000
g SM_WarpPipe
usemtl SG_WarpPipe
f 1/15/1 2/19/2 14/20/3 13/16/4
f 2/135/2 3/136/5 15/137/6 14/138/3
f 3/136/5 4/7/7 16/8/8 15/137/6
f 4/7/7 5/1/9 17/4/10 16/8/8
f 5/1/9 6/2/11 18/3/12 17/4/10
f 6/2/11 7/5/13 19/6/14 18/3/12
f 7/5/13 8/9/15 20/10/16 19/6/14
f 8/9/15 9/139/17 21/140/18 20/10/16
f 9/139/17 10/17/19 22/18/20 21/140/18
f 10/17/19 11/11/21 23/14/22 22/18/20
f 11/11/21 12/12/23 24/13/24 23/14/22
f 12/12/23 1/15/1 13/16/4 24/13/24
f 38/35/25 39/39/26 40/40/27 41/36/28
f 39/141/26 42/142/29 43/143/30 40/144/27
f 42/142/29 44/27/31 45/28/32 43/143/30
f 44/27/31 46/21/33 47/24/34 45/28/32
f 46/21/33 48/22/35 49/23/36 47/24/34
f 48/22/35 50/25/37 51/26/38 49/23/36
f 50/25/37 52/29/39 53/30/40 51/26/38
f 52/29/39 54/145/41 55/146/42 53/30/40
f 54/145/41 56/37/43 57/38/44 55/146/42
f 56/37/43 58/31/45 59/34/46 57/38/44
f 58/31/45 60/32/47 61/33/48 59/34/46
f 60/32/47 38/35/25 41/36/28 61/33/48
f 2/61/49 1/62/50 37/63/51
f 3/65/52 2/61/49 37/63/51
f 4/67/53 3/65/52 37/63/51
f 5/69/54 4/67/53 37/63/51
f 6/71/55 5/69/54 37/63/51
f 7/73/56 6/71/55 37/63/51
f 8/72/57 7/73/56 37/63/51
f 9/70/58 8/72/57 37/63/51
f 10/68/59 9/70/58 37/63/51
f 11/66/60 10/68/59 37/63/51
f 12/64/61 11/66/60 37/63/51
f 1/62/50 12/64/61 37/63/51
f 62/74/62 63/75/63 64/76/64
f 63/75/63 65/77/65 64/76/64
f 65/77/65 66/79/66 64/76/64
f 66/79/66 67/81/67 64/76/64
f 67/81/67 68/83/68 64/76/64
f 68/83/68 69/85/69 64/76/64
f 69/85/69 70/86/70 64/76/64
f 70/86/70 71/84/71 64/76/64
f 71/84/71 72/82/72 64/76/64
f 72/82/72 73/80/73 64/76/64
f 73/80/73 74/78/74 64/76/64
f 74/78/74 62/74/62 64/76/64
f 13/87/75 14/88/76 39/89/77 38/90/78
f 26/111/79 25/112/80 41/113/81 40/114/82
f 14/88/76 15/91/83 42/92/84 39/89/77
f 27/117/85 26/111/79 40/114/82 43/118/86
f 15/91/83 16/95/87 44/96/88 42/92/84
f 28/121/89 27/117/85 43/118/86 45/122/90
f 16/95/87 17/99/91 46/100/92 44/96/88
f 29/125/93 28/121/89 45/122/90 47/126/94
f 17/99/91 18/103/95 48/104/96 46/100/92
f 30/129/97 29/125/93 47/126/94 49/130/98
f 18/103/95 19/107/99 50/108/100 48/104/96
f 31/133/101 30/129/97 49/130/98 51/134/102
f 19/107/99 20/109/103 52/110/104 50/108/100
f 32/131/105 31/133/101 51/134/102 53/132/106
f 20/109/103 21/105/107 54/106/108 52/110/104
f 33/127/109 32/131/105 53/132/106 55/128/110
f 21/105/107 22/101/111 56/102/112 54/106/108
f 34/123/113 33/127/109 55/128/110 57/124/114
f 22/101/111 23/97/115 58/98/116 56/102/112
f 35/119/117 34/123/113 57/124/114 59/120/118
f 23/97/115 24/93/119 60/94/120 58/98/116
f 36/115/121 35/119/117 59/120/118 61/116/122
f 24/93/119 13/87/75 38/90/78 60/94/120
f 25/112/80 36/115/121 61/116/122 41/113/81
f 25/55/123 26/59/124 63/60/125 62/56/126
f 26/147/124 27/148/127 65/149/128 63/150/125
f 27/148/127 28/47/129 66/48/130 65/149/128
f 28/47/129 29/41/131 67/44/132 66/48/130
f 29/41/131 30/42/133 68/43/134 67/44/132
f 30/42/133 31/45/135 69/46/136 68/43/134
f 31/45/135 32/49/137 70/50/138 69/46/136
f 32/49/137 33/151/139 71/152/140 70/50/138
f 33/151/139 34/57/141 72/58/142 71/152/140
f 34/57/141 35/51/143 73/54/144 72/58/142
f 35/51/143 36/52/145 74/53/146 73/54/144
f 36/52/145 25/55/123 62/56/126 74/53/146
