# This file uses centimeters as units for non-parametric coordinates.

mtllib Cow.mtl
v -0.249922 0.960075 0.859221
v 0.249922 0.960075 0.859221
v -0.249922 1.448103 0.751179
v 0.249922 1.448103 0.751179
v -0.249922 1.367071 0.385158
v 0.249922 1.367071 0.385158
v -0.249922 0.879043 0.493200
v 0.249922 0.879043 0.493200
v -0.312660 1.331431 0.647473
v -0.250179 1.331431 0.647473
v -0.312660 1.514441 0.606958
v -0.250179 1.514441 0.606958
v -0.312660 1.500936 0.545954
v -0.250179 1.500936 0.545954
v -0.312660 1.317925 0.586470
v -0.250179 1.317925 0.586470
v 0.242415 1.331431 0.647473
v 0.304896 1.331431 0.647473
v 0.242415 1.514441 0.606958
v 0.304896 1.514441 0.606958
v 0.242415 1.500936 0.545954
v 0.304896 1.500936 0.545954
v 0.242415 1.317925 0.586470
v 0.304896 1.317925 0.586470
v 0.374230 1.247547 -0.557531
v -0.374230 1.247547 -0.557531
v 0.374230 1.247547 0.438912
v -0.374230 1.247547 0.438912
v 0.374230 0.747640 0.438912
v -0.374230 0.747640 0.438912
v 0.374230 0.747640 -0.557531
v -0.374230 0.747640 -0.557531
v 0.312005 -0.000931 -0.550405
v 0.062005 -0.000931 -0.550405
v 0.312005 0.749069 -0.550405
v 0.062005 0.749069 -0.550405
v 0.312005 0.749069 -0.300405
v 0.062005 0.749069 -0.300405
v 0.312005 -0.000931 -0.300405
v 0.062005 -0.000931 -0.300405
v -0.311378 -0.000931 -0.550405
v -0.061378 -0.000931 -0.550405
v -0.311378 0.749069 -0.550405
v -0.061378 0.749069 -0.550405
v -0.311378 0.749069 -0.300405
v -0.061378 0.749069 -0.300405
v -0.311378 -0.000931 -0.300405
v -0.061378 -0.000931 -0.300405
v 0.312005 -0.000931 0.378433
v 0.062005 -0.000931 0.378433
v 0.312005 0.749069 0.378433
v 0.062005 0.749069 0.378433
v 0.312005 0.749069 0.128433
v 0.062005 0.749069 0.128433
v 0.312005 -0.000931 0.128433
v 0.062005 -0.000931 0.128433
v -0.311378 -0.000931 0.378433
v -0.061378 -0.000931 0.378433
v -0.311378 0.749069 0.378433
v -0.061378 0.749069 0.378433
v -0.311378 0.749069 0.128433
v -0.061378 0.749069 0.128433
v -0.311378 -0.000931 0.128433
v -0.061378 -0.000931 0.128433
vt 0.094037 0.563145
vt 0.218394 0.563145
vt 0.218394 0.811176
vt 0.094037 0.811176
vt 0.000928 0.811176
vt 0.000928 0.563145
vt 0.218394 0.999102
vt 0.094037 0.999102
vt 0.437129 0.811176
vt 0.312138 0.811176
vt 0.312138 0.563145
vt 0.437129 0.563144
vt 0.218447 0.998735
vt 0.218447 0.811126
vt 0.343214 0.811126
vt 0.343214 0.998735
vt 0.358806 0.873719
vt 0.374634 0.873719
vt 0.374634 0.969752
vt 0.358806 0.969752
vt 0.374634 1.000289
vt 0.358806 1.000289
vt 0.405848 0.969752
vt 0.389798 0.969752
vt 0.389798 0.873719
vt 0.405848 0.873719
vt 0.374608 1.000103
vt 0.374608 0.969685
vt 0.390067 0.969685
vt 0.390067 1.000103
vt 0.342977 0.873719
vt 0.342977 0.969752
vt 0.358806 0.873719
vt 0.374634 0.873719
vt 0.374634 0.969752
vt 0.358806 0.969752
vt 0.374634 1.000289
vt 0.358806 1.000289
vt 0.405848 0.969752
vt 0.389798 0.969752
vt 0.389798 0.873719
vt 0.405848 0.873719
vt 0.374608 1.000103
vt 0.374608 0.969685
vt 0.390067 0.969685
vt 0.390067 1.000103
vt 0.342977 0.873719
vt 0.342977 0.969752
vt 0.812077 0.002075
vt 0.968281 0.002076
vt 0.968280 0.562165
vt 0.812077 0.562164
vt 0.625106 0.874295
vt 0.437094 0.874294
vt 0.437094 0.562163
vt 0.625106 0.562164
vt 0.437094 0.002074
vt 0.625106 0.002074
vt 0.624510 0.561658
vt 0.813055 0.561658
vt 0.813055 0.872901
vt 0.624510 0.872901
vt 0.280452 0.002074
vt 0.280452 0.562164
vt 0.063175 0.000590
vt 0.125078 0.000590
vt 0.125078 0.374259
vt 0.063175 0.374259
vt 0.125079 0.500610
vt 0.063176 0.500610
vt 0.249691 0.374259
vt 0.186914 0.374259
vt 0.186914 0.000590
vt 0.249691 0.000590
vt 0.125349 0.374173
vt 0.187112 0.374173
vt 0.187112 0.501211
vt 0.125349 0.501211
vt 0.000800 0.000590
vt 0.000800 0.374259
vt 0.063175 0.000590
vt 0.063175 0.374259
vt 0.125078 0.374259
vt 0.125078 0.000590
vt 0.063176 0.500610
vt 0.125079 0.500610
vt 0.249691 0.374259
vt 0.249691 0.000590
vt 0.186914 0.000590
vt 0.186914 0.374259
vt 0.125349 0.374173
vt 0.125349 0.501211
vt 0.187112 0.501211
vt 0.187112 0.374173
vt 0.000800 0.000590
vt 0.000800 0.374259
vt 0.063175 0.000590
vt 0.063175 0.374259
vt 0.125078 0.374259
vt 0.125078 0.000590
vt 0.063176 0.500610
vt 0.125079 0.500610
vt 0.249691 0.374259
vt 0.249691 0.000590
vt 0.186914 0.000590
vt 0.186914 0.374259
vt 0.125349 0.374173
vt 0.125349 0.501211
vt 0.187112 0.501211
vt 0.187112 0.374173
vt 0.000800 0.000590
vt 0.000800 0.374259
vt 0.063175 0.000590
vt 0.125078 0.000590
vt 0.125078 0.374259
vt 0.063175 0.374259
vt 0.125079 0.500610
vt 0.063176 0.500610
vt 0.249691 0.374259
vt 0.186914 0.374259
vt 0.186914 0.000590
vt 0.249691 0.000590
vt 0.125349 0.374173
vt 0.187112 0.374173
vt 0.187112 0.501211
vt 0.125349 0.501211
vt 0.000800 0.000590
vt 0.000800 0.374259
vn 0.000000 0.216152 0.976360
vn 0.000000 0.216152 0.976360
vn 0.000000 0.216152 0.976360
vn 0.000000 0.216152 0.976360
vn 0.000000 0.976360 -0.216152
vn 0.000000 0.976360 -0.216152
vn 0.000000 0.976360 -0.216152
vn 0.000000 0.976360 -0.216152
vn 0.000000 -0.216152 -0.976360
vn 0.000000 -0.216152 -0.976360
vn 0.000000 -0.216152 -0.976360
vn 0.000000 -0.216152 -0.976360
vn 0.000000 -0.976360 0.216152
vn 0.000000 -0.976360 0.216152
vn 0.000000 -0.976360 0.216152
vn 0.000000 -0.976360 0.216152
vn 1.000000 -0.000000 0.000000
vn 1.000000 -0.000000 0.000000
vn 1.000000 -0.000000 0.000000
vn 1.000000 -0.000000 0.000000
vn -1.000000 -0.000000 0.000000
vn -1.000000 -0.000000 0.000000
vn -1.000000 -0.000000 0.000000
vn -1.000000 -0.000000 0.000000
vn 0.000000 0.216152 0.976360
vn 0.000000 0.216152 0.976360
vn 0.000000 0.216152 0.976360
vn 0.000000 0.216152 0.976360
vn 0.000000 0.976360 -0.216149
vn 0.000000 0.976360 -0.216149
vn 0.000000 0.976360 -0.216149
vn 0.000000 0.976360 -0.216149
vn 0.000000 -0.216152 -0.976360
vn 0.000000 -0.216152 -0.976360
vn 0.000000 -0.216152 -0.976360
vn 0.000000 -0.216152 -0.976360
vn 0.000000 -0.976360 0.216151
vn 0.000000 -0.976360 0.216151
vn 0.000000 -0.976360 0.216151
vn 0.000000 -0.976360 0.216151
vn 1.000000 0.000000 0.000000
vn 1.000000 0.000000 0.000000
vn 1.000000 0.000000 0.000000
vn 1.000000 0.000000 0.000000
vn -1.000000 0.000000 0.000000
vn -1.000000 0.000000 0.000000
vn -1.000000 0.000000 0.000000
vn -1.000000 0.000000 0.000000
vn 0.000000 0.216152 0.976360
vn 0.000000 0.216152 0.976360
vn 0.000000 0.216152 0.976360
vn 0.000000 0.216152 0.976360
vn 0.000000 0.976360 -0.216149
vn 0.000000 0.976360 -0.216149
vn 0.000000 0.976360 -0.216149
vn 0.000000 0.976360 -0.216149
vn 0.000000 -0.216152 -0.976360
vn 0.000000 -0.216152 -0.976360
vn 0.000000 -0.216152 -0.976360
vn 0.000000 -0.216152 -0.976360
vn 0.000000 -0.976360 0.216151
vn 0.000000 -0.976360 0.216151
vn 0.000000 -0.976360 0.216151
vn 0.000000 -0.976360 0.216151
vn 1.000000 0.000000 0.000000
vn 1.000000 0.000000 0.000000
vn 1.000000 0.000000 0.000000
vn 1.000000 0.000000 0.000000
vn -1.000000 0.000000 0.000000
vn -1.000000 0.000000 0.000000
vn -1.000000 0.000000 0.000000
vn -1.000000 0.000000 0.000000
vn 0.000000 1.000000 0.000000
vn 0.000000 1.000000 0.000000
vn 0.000000 1.000000 0.000000
vn 0.000000 1.000000 0.000000
vn 0.000000 -0.000000 1.000000
vn 0.000000 -0.000000 1.000000
vn 0.000000 -0.000000 1.000000
vn 0.000000 -0.000000 1.000000
vn 0.000000 -1.000000 0.000000
vn 0.000000 -1.000000 0.000000
vn 0.000000 -1.000000 0.000000
vn 0.000000 -1.000000 0.000000
vn 0.000000 0.000000 -1.000000
vn 0.000000 0.000000 -1.000000
vn 0.000000 0.000000 -1.000000
vn 0.000000 0.000000 -1.000000
vn -1.000000 0.000000 0.000000
vn -1.000000 0.000000 0.000000
vn -1.000000 0.000000 0.000000
vn -1.000000 0.000000 0.000000
vn 1.000000 0.000000 0.000000
vn 1.000000 0.000000 0.000000
vn 1.000000 0.000000 0.000000
vn 1.000000 0.000000 0.000000
vn 0.000000 0.000000 -1.000000
vn 0.000000 0.000000 -1.000000
vn 0.000000 0.000000 -1.000000
vn 0.000000 0.000000 -1.000000
vn 0.000000 1.000000 0.000000
vn 0.000000 1.000000 0.000000
vn 0.000000 1.000000 0.000000
vn 0.000000 1.000000 0.000000
vn 0.000000 0.000000 1.000000
vn 0.000000 0.000000 1.000000
vn 0.000000 0.000000 1.000000
vn 0.000000 0.000000 1.000000
vn 0.000000 -1.000000 0.000000
vn 0.000000 -1.000000 0.000000
vn 0.000000 -1.000000 0.000000
vn 0.000000 -1.000000 0.000000
vn -1.000000 0.000000 0.000000
vn -1.000000 0.000000 0.000000
vn -1.000000 0.000000 0.000000
vn -1.000000 0.000000 0.000000
vn 1.000000 0.000000 0.000000
vn 1.000000 0.000000 0.000000
vn 1.000000 0.000000 0.000000
vn 1.000000 0.000000 0.000000
vn 0.000000 0.000000 -1.000000
vn 0.000000 0.000000 -1.000000
vn 0.000000 0.000000 -1.000000
vn 0.000000 0.000000 -1.000000
vn 0.000000 1.000000 0.000000
vn 0.000000 1.000000 0.000000
vn 0.000000 1.000000 0.000000
vn 0.000000 1.000000 0.000000
vn 0.000000 0.000000 1.000000
vn 0.000000 0.000000 1.000000
vn 0.000000 0.000000 1.000000
vn 0.000000 0.000000 1.000000
vn 0.000000 -1.000000 0.000000
vn 0.000000 -1.000000 0.000000
vn 0.000000 -1.000000 0.000000
vn 0.000000 -1.000000 0.000000
vn 1.000000 0.000000 0.000000
vn 1.000000 0.000000 0.000000
vn 1.000000 0.000000 0.000000
vn 1.000000 0.000000 0.000000
vn -1.000000 0.000000 0.000000
vn -1.000000 0.000000 0.000000
vn -1.000000 0.000000 0.000000
vn -1.000000 0.000000 0.000000
vn 0.000000 0.000000 1.000000
vn 0.000000 0.000000 1.000000
vn 0.000000 0.000000 1.000000
vn 0.000000 0.000000 1.000000
vn 0.000000 1.000000 0.000000
vn 0.000000 1.000000 0.000000
vn 0.000000 1.000000 0.000000
vn 0.000000 1.000000 0.000000
vn 0.000000 0.000000 -1.000000
vn 0.000000 0.000000 -1.000000
vn 0.000000 0.000000 -1.000000
vn 0.000000 0.000000 -1.000000
vn 0.000000 -1.000000 0.000000
vn 0.000000 -1.000000 0.000000
vn 0.000000 -1.000000 0.000000
vn 0.000000 -1.000000 0.000000
vn -1.000000 0.000000 0.000000
vn -1.000000 0.000000 0.000000
vn -1.000000 0.000000 0.000000
vn -1.000000 0.000000 0.000000
vn 1.000000 0.000000 0.000000
vn 1.000000 0.000000 0.000000
vn 1.000000 0.000000 0.000000
vn 1.000000 0.000000 0.000000
vn 0.000000 0.000000 1.000000
vn 0.000000 0.000000 1.000000
vn 0.000000 0.000000 1.000000
vn 0.000000 0.000000 1.000000
vn 0.000000 1.000000 0.000000
vn 0.000000 1.000000 0.000000
vn 0.000000 1.000000 0.000000
vn 0.000000 1.000000 0.000000
vn 0.000000 0.000000 -1.000000
vn 0.000000 0.000000 -1.000000
vn 0.000000 0.000000 -1.000000
vn 0.000000 0.000000 -1.000000
vn 0.000000 -1.000000 0.000000
vn 0.000000 -1.000000 0.000000
vn 0.000000 -1.000000 0.000000
vn 0.000000 -1.000000 0.000000
vn 1.000000 0.000000 0.000000
vn 1.000000 0.000000 0.000000
vn 1.000000 0.000000 0.000000
vn 1.000000 0.000000 0.000000
vn -1.000000 0.000000 0.000000
vn -1.000000 0.000000 0.000000
vn -1.000000 0.000000 0.000000
vn -1.000000 0.000000 0.000000
g MC_Cow
usemtl MC_Cow_SG
f 1/1/1 2/2/2 4/3/3 3/4/4
f 3/4/5 4/3/6 6/7/7 5/8/8
f 5/9/9 6/10/10 8/11/11 7/12/12
f 7/13/13 8/14/14 2/15/15 1/16/16
f 2/2/17 8/11/18 6/10/19 4/3/20
f 7/6/21 1/1/22 3/4/23 5/5/24
f 9/17/25 10/18/26 12/19/27 11/20/28
f 11/20/29 12/19/30 14/21/31 13/22/32
f 13/23/33 14/24/34 16/25/35 15/26/36
f 15/27/37 16/28/38 10/29/39 9/30/40
f 10/18/41 16/25/42 14/24/43 12/19/44
f 15/31/45 9/17/46 11/20/47 13/32/48
f 17/33/49 18/34/50 20/35/51 19/36/52
f 19/36/53 20/35/54 22/37/55 21/38/56
f 21/39/57 22/40/58 24/41/59 23/42/60
f 23/43/61 24/44/62 18/45/63 17/46/64
f 18/34/65 24/41/66 22/40/67 20/35/68
f 23/47/69 17/33/70 19/36/71 21/48/72
f 25/49/73 26/50/74 28/51/75 27/52/76
f 27/53/77 28/54/78 30/55/79 29/56/80
f 29/56/81 30/55/82 32/57/83 31/58/84
f 31/59/85 32/60/86 26/61/87 25/62/88
f 26/63/89 32/57/90 30/55/91 28/64/92
f 31/58/93 25/49/94 27/52/95 29/56/96
f 33/65/97 34/66/98 36/67/99 35/68/100
f 35/68/101 36/67/102 38/69/103 37/70/104
f 37/71/105 38/72/106 40/73/107 39/74/108
f 39/75/109 40/76/110 34/77/111 33/78/112
f 34/66/113 40/73/114 38/72/115 36/67/116
f 39/79/117 33/65/118 35/68/119 37/80/120
f 41/81/121 43/82/122 44/83/123 42/84/124
f 43/82/125 45/85/126 46/86/127 44/83/128
f 45/87/129 47/88/130 48/89/131 46/90/132
f 47/91/133 41/92/134 42/93/135 48/94/136
f 42/84/137 44/83/138 46/90/139 48/89/140
f 47/95/141 45/96/142 43/82/143 41/81/144
f 49/97/145 51/98/146 52/99/147 50/100/148
f 51/98/149 53/101/150 54/102/151 52/99/152
f 53/103/153 55/104/154 56/105/155 54/106/156
f 55/107/157 49/108/158 50/109/159 56/110/160
f 50/100/161 52/99/162 54/106/163 56/105/164
f 55/111/165 53/112/166 51/98/167 49/97/168
f 57/113/169 58/114/170 60/115/171 59/116/172
f 59/116/173 60/115/174 62/117/175 61/118/176
f 61/119/177 62/120/178 64/121/179 63/122/180
f 63/123/181 64/124/182 58/125/183 57/126/184
f 58/114/185 64/121/186 62/120/187 60/115/188
f 63/127/189 57/113/190 59/116/191 61/128/192
