# This file uses centimeters as units for non-parametric coordinates.

mtllib Cube.mtl
v 0.000000 0.000000 1.000000
v 1.000001 0.000000 1.000000
v 0.000000 1.000000 1.000000
v 1.000001 1.000000 1.000000
v 0.000000 1.000000 -0.000000
v 1.000001 1.000000 -0.000000
v 0.000000 0.000000 -0.000000
v 1.000001 0.000000 -0.000000
vt -0.003128 0.336873
vt 0.493530 -0.000319
vt 0.252629 0.336832
vt 0.493747 0.336831
vt 0.252629 0.663010
vt 0.493747 0.663012
vt 0.996564 0.663013
vt 0.493530 0.996487
vt 0.996564 0.336830
vt 0.750095 0.336827
vt 0.750098 0.663015
vt -0.003128 0.662970
vt 0.252729 0.996488
vt 0.252729 -0.000319
vn 0.000000 0.000000 1.000000
vn 0.000000 0.000000 1.000000
vn 0.000000 0.000000 1.000000
vn 0.000000 0.000000 1.000000
vn 0.000000 1.000000 0.000000
vn 0.000000 1.000000 0.000000
vn 0.000000 1.000000 0.000000
vn 0.000000 1.000000 0.000000
vn 0.000000 0.000000 -1.000000
vn 0.000000 0.000000 -1.000000
vn 0.000000 0.000000 -1.000000
vn 0.000000 0.000000 -1.000000
vn 0.000000 -1.000000 0.000000
vn 0.000000 -1.000000 0.000000
vn 0.000000 -1.000000 0.000000
vn 0.000000 -1.000000 0.000000
vn 1.000000 0.000000 0.000000
vn 1.000000 0.000000 0.000000
vn 1.000000 0.000000 0.000000
vn 1.000000 0.000000 0.000000
vn -1.000000 0.000000 0.000000
vn -1.000000 0.000000 0.000000
vn -1.000000 0.000000 0.000000
vn -1.000000 0.000000 0.000000
g Grass
usemtl Floor_SG
f 1/14/1 2/2/2 4/4/3 3/3/4
f 3/3/5 4/4/6 6/6/7 5/5/8
f 5/5/9 6/6/10 8/8/11 7/13/12
f 7/7/13 8/11/14 2/10/15 1/9/16
f 2/10/17 8/11/18 6/6/19 4/4/20
f 7/12/21 1/1/22 3/3/23 5/5/24
